<svg width="30" height="30" viewBox="0 0 30 30" fill="none" xmlns="http://www.w3.org/2000/svg">
<path d="M3.71447 4.82746C3.22661 5.31532 3.259 6.13828 3.71643 6.59571L12.3057 15.185L14.0734 13.4172L5.48419 4.82794C5.02683 4.37058 4.20241 4.33952 3.71447 4.82746Z" fill="#00730C"/>
<path d="M24.9982 26.1112C25.4861 25.6233 25.4975 24.8413 25.0401 24.3838L16.7717 16.1154L15.0039 17.8832L23.2723 26.1516C23.7297 26.609 24.5103 26.599 24.9982 26.1112Z" fill="#00730C"/>
<path d="M25.3831 6.61496L5.82719 26.1709C5.36977 26.6283 4.4885 26.7199 4.00064 26.2321C3.51278 25.7442 3.60207 24.8604 4.05943 24.4031C4.51679 23.9457 23.6153 4.84719 23.6153 4.84719C24.0727 4.38977 25.0107 4.24482 25.4986 4.73268C25.9864 5.22055 25.8405 6.15753 25.3831 6.61496Z" fill="#00730C"/>
</svg>
