<svg width="20" height="13" viewBox="0 0 20 13" fill="none" xmlns="http://www.w3.org/2000/svg">
<path d="M17.7551 5.49363V3.33862H16.6327V5.49363H14.3879V6.57113H16.6327V8.72613H17.7551V6.57113H19.9999V5.49363H17.7551Z" fill="white"/>
<path d="M6.75228 5.36134V7.89468H10.3357C9.81255 9.36908 8.40401 10.428 6.75228 10.428C4.65721 10.428 2.95228 8.72308 2.95228 6.62801C2.95228 4.53294 4.65721 2.82801 6.75228 2.82801C7.66048 2.82801 8.53448 3.15354 9.21341 3.74508L10.8778 1.83494C9.73781 0.841878 8.27355 0.294678 6.75228 0.294678C3.26008 0.294678 0.418945 3.13581 0.418945 6.62801C0.418945 10.1202 3.26008 12.9613 6.75228 12.9613C10.2445 12.9613 13.0856 10.1202 13.0856 6.62801V5.36134H6.75228Z" fill="white"/>
</svg>
